<mxfile host="65bd71144e">
    <diagram name="Replication Multiple Machine" id="oGgIKcy1KZ6UAMiOBFBA">
        <mxGraphModel dx="1129" dy="579" grid="1" gridSize="10" guides="1" tooltips="1" connect="1" arrows="1" fold="1" page="1" pageScale="1" pageWidth="827" pageHeight="1169" background="#000000" math="0" shadow="0">
            <root>
                <mxCell id="J8uCGS3BcCjM7RrEL_1T-0"/>
                <mxCell id="J8uCGS3BcCjM7RrEL_1T-1" parent="J8uCGS3BcCjM7RrEL_1T-0"/>
                <mxCell id="0Lq6ei8JvvkG0iNvDyIp-28" value="" style="rounded=1;whiteSpace=wrap;html=1;strokeColor=default;container=0;" parent="J8uCGS3BcCjM7RrEL_1T-1" vertex="1">
                    <mxGeometry x="40" y="80" width="780" height="840" as="geometry"/>
                </mxCell>
                <mxCell id="GXZVyJL7a8LmTCk5dLTQ-2" value="" style="edgeStyle=orthogonalEdgeStyle;rounded=0;orthogonalLoop=1;jettySize=auto;html=1;" parent="J8uCGS3BcCjM7RrEL_1T-1" edge="1">
                    <mxGeometry relative="1" as="geometry">
                        <mxPoint x="295" y="169.00150943396227" as="sourcePoint"/>
                    </mxGeometry>
                </mxCell>
                <mxCell id="0Lq6ei8JvvkG0iNvDyIp-15" value="" style="edgeStyle=orthogonalEdgeStyle;rounded=0;orthogonalLoop=1;jettySize=auto;html=1;" parent="J8uCGS3BcCjM7RrEL_1T-1" edge="1">
                    <mxGeometry relative="1" as="geometry">
                        <mxPoint x="20" y="425" as="sourcePoint"/>
                    </mxGeometry>
                </mxCell>
                <mxCell id="0Lq6ei8JvvkG0iNvDyIp-16" value="" style="edgeStyle=orthogonalEdgeStyle;rounded=0;orthogonalLoop=1;jettySize=auto;html=1;" parent="J8uCGS3BcCjM7RrEL_1T-1" edge="1">
                    <mxGeometry relative="1" as="geometry">
                        <mxPoint x="170" y="425" as="sourcePoint"/>
                    </mxGeometry>
                </mxCell>
                <mxCell id="0Lq6ei8JvvkG0iNvDyIp-17" value="" style="edgeStyle=orthogonalEdgeStyle;rounded=0;orthogonalLoop=1;jettySize=auto;html=1;" parent="J8uCGS3BcCjM7RrEL_1T-1" edge="1">
                    <mxGeometry relative="1" as="geometry">
                        <mxPoint x="320" y="425" as="sourcePoint"/>
                    </mxGeometry>
                </mxCell>
                <mxCell id="0Lq6ei8JvvkG0iNvDyIp-23" value="" style="edgeStyle=orthogonalEdgeStyle;rounded=0;orthogonalLoop=1;jettySize=auto;html=1;" parent="J8uCGS3BcCjM7RrEL_1T-1" edge="1">
                    <mxGeometry relative="1" as="geometry">
                        <mxPoint x="720" y="415.79999999999995" as="sourcePoint"/>
                    </mxGeometry>
                </mxCell>
                <mxCell id="0Lq6ei8JvvkG0iNvDyIp-24" value="" style="edgeStyle=orthogonalEdgeStyle;rounded=0;orthogonalLoop=1;jettySize=auto;html=1;" parent="J8uCGS3BcCjM7RrEL_1T-1" edge="1">
                    <mxGeometry relative="1" as="geometry">
                        <mxPoint x="830" y="415.79999999999995" as="sourcePoint"/>
                    </mxGeometry>
                </mxCell>
                <mxCell id="0Lq6ei8JvvkG0iNvDyIp-25" value="" style="edgeStyle=orthogonalEdgeStyle;rounded=0;orthogonalLoop=1;jettySize=auto;html=1;" parent="J8uCGS3BcCjM7RrEL_1T-1" edge="1">
                    <mxGeometry relative="1" as="geometry">
                        <mxPoint x="940" y="415.79999999999995" as="sourcePoint"/>
                    </mxGeometry>
                </mxCell>
                <mxCell id="0Lq6ei8JvvkG0iNvDyIp-26" value="" style="edgeStyle=orthogonalEdgeStyle;rounded=0;orthogonalLoop=1;jettySize=auto;html=1;" parent="J8uCGS3BcCjM7RrEL_1T-1" edge="1">
                    <mxGeometry relative="1" as="geometry">
                        <mxPoint x="1050" y="415.79999999999995" as="sourcePoint"/>
                    </mxGeometry>
                </mxCell>
                <mxCell id="GXZVyJL7a8LmTCk5dLTQ-3" value="" style="edgeStyle=orthogonalEdgeStyle;rounded=0;orthogonalLoop=1;jettySize=auto;html=1;" parent="J8uCGS3BcCjM7RrEL_1T-1" edge="1">
                    <mxGeometry relative="1" as="geometry">
                        <mxPoint x="475" y="169.00150943396227" as="sourcePoint"/>
                    </mxGeometry>
                </mxCell>
                <mxCell id="1FsDsGf2ufcHj_-_yAfK-1" value="" style="rounded=1;whiteSpace=wrap;html=1;strokeColor=default;container=0;" parent="J8uCGS3BcCjM7RrEL_1T-1" vertex="1">
                    <mxGeometry x="69" y="370" width="301" height="240" as="geometry"/>
                </mxCell>
                <mxCell id="1FsDsGf2ufcHj_-_yAfK-3" value="" style="rounded=1;whiteSpace=wrap;html=1;strokeColor=default;container=0;" parent="J8uCGS3BcCjM7RrEL_1T-1" vertex="1">
                    <mxGeometry x="69" y="640" width="301" height="210" as="geometry"/>
                </mxCell>
                <mxCell id="1FsDsGf2ufcHj_-_yAfK-4" value="" style="rounded=1;whiteSpace=wrap;html=1;strokeColor=default;container=0;" parent="J8uCGS3BcCjM7RrEL_1T-1" vertex="1">
                    <mxGeometry x="490" y="640" width="301" height="210" as="geometry"/>
                </mxCell>
                <mxCell id="nOzmlmnSID6Bgxyw5HdH-2" value="&lt;h1 style=&quot;margin-top: 0px;&quot;&gt;Primary&lt;/h1&gt;" style="text;html=1;whiteSpace=wrap;overflow=hidden;rounded=0;align=center;" parent="J8uCGS3BcCjM7RrEL_1T-1" vertex="1">
                    <mxGeometry x="183" y="440" width="180" height="60" as="geometry"/>
                </mxCell>
                <mxCell id="xVIrmUXRm1avwGHS0gCq-0" value="" style="shape=cylinder3;whiteSpace=wrap;html=1;boundedLbl=1;backgroundOutline=1;size=15;" parent="J8uCGS3BcCjM7RrEL_1T-1" vertex="1">
                    <mxGeometry x="223" y="485" width="100" height="100" as="geometry"/>
                </mxCell>
                <mxCell id="1FsDsGf2ufcHj_-_yAfK-5" style="edgeStyle=orthogonalEdgeStyle;rounded=0;orthogonalLoop=1;jettySize=auto;html=1;" parent="J8uCGS3BcCjM7RrEL_1T-1" source="xVIrmUXRm1avwGHS0gCq-6" target="xVIrmUXRm1avwGHS0gCq-0" edge="1">
                    <mxGeometry relative="1" as="geometry"/>
                </mxCell>
                <mxCell id="1FsDsGf2ufcHj_-_yAfK-8" style="edgeStyle=orthogonalEdgeStyle;rounded=0;orthogonalLoop=1;jettySize=auto;html=1;entryX=0;entryY=0.5;entryDx=0;entryDy=0;" parent="J8uCGS3BcCjM7RrEL_1T-1" source="xVIrmUXRm1avwGHS0gCq-6" target="1FsDsGf2ufcHj_-_yAfK-7" edge="1">
                    <mxGeometry relative="1" as="geometry"/>
                </mxCell>
                <mxCell id="xVIrmUXRm1avwGHS0gCq-6" value="&lt;font style=&quot;font-size: 20px;&quot;&gt;Patroni&lt;/font&gt;" style="rounded=1;whiteSpace=wrap;html=1;" parent="J8uCGS3BcCjM7RrEL_1T-1" vertex="1">
                    <mxGeometry x="90" y="480" width="80" height="110" as="geometry"/>
                </mxCell>
                <mxCell id="kCRNwn6qarhYmWp9XZ3q-0" value="&lt;h1 style=&quot;margin-top: 0px;&quot;&gt;&lt;font style=&quot;font-size: 30px;&quot;&gt;PG-1&lt;/font&gt;&lt;/h1&gt;" style="text;html=1;whiteSpace=wrap;overflow=hidden;rounded=0;align=center;" parent="J8uCGS3BcCjM7RrEL_1T-1" vertex="1">
                    <mxGeometry x="109" y="380" width="221" height="60" as="geometry"/>
                </mxCell>
                <mxCell id="1FsDsGf2ufcHj_-_yAfK-6" value="&lt;h1 style=&quot;margin-top: 0px;&quot;&gt;&lt;font style=&quot;font-size: 30px;&quot;&gt;ETCD-1&lt;/font&gt;&lt;/h1&gt;" style="text;html=1;whiteSpace=wrap;overflow=hidden;rounded=0;align=center;" parent="J8uCGS3BcCjM7RrEL_1T-1" vertex="1">
                    <mxGeometry x="109" y="650" width="221" height="60" as="geometry"/>
                </mxCell>
                <mxCell id="1FsDsGf2ufcHj_-_yAfK-7" value="&lt;font style=&quot;font-size: 20px;&quot;&gt;ETCD&lt;/font&gt;" style="ellipse;whiteSpace=wrap;html=1;aspect=fixed;" parent="J8uCGS3BcCjM7RrEL_1T-1" vertex="1">
                    <mxGeometry x="169.5" y="720" width="100" height="100" as="geometry"/>
                </mxCell>
                <mxCell id="1FsDsGf2ufcHj_-_yAfK-9" value="" style="rounded=1;whiteSpace=wrap;html=1;strokeColor=default;container=0;" parent="J8uCGS3BcCjM7RrEL_1T-1" vertex="1">
                    <mxGeometry x="490" y="370" width="301" height="240" as="geometry"/>
                </mxCell>
                <mxCell id="1FsDsGf2ufcHj_-_yAfK-10" value="&lt;h1 style=&quot;margin-top: 0px;&quot;&gt;Standby&lt;/h1&gt;" style="text;html=1;whiteSpace=wrap;overflow=hidden;rounded=0;align=center;" parent="J8uCGS3BcCjM7RrEL_1T-1" vertex="1">
                    <mxGeometry x="480" y="440" width="180" height="60" as="geometry"/>
                </mxCell>
                <mxCell id="1FsDsGf2ufcHj_-_yAfK-11" value="" style="shape=cylinder3;whiteSpace=wrap;html=1;boundedLbl=1;backgroundOutline=1;size=15;" parent="J8uCGS3BcCjM7RrEL_1T-1" vertex="1">
                    <mxGeometry x="520" y="485" width="100" height="100" as="geometry"/>
                </mxCell>
                <mxCell id="1FsDsGf2ufcHj_-_yAfK-16" value="" style="edgeStyle=orthogonalEdgeStyle;rounded=0;orthogonalLoop=1;jettySize=auto;html=1;" parent="J8uCGS3BcCjM7RrEL_1T-1" source="1FsDsGf2ufcHj_-_yAfK-12" target="1FsDsGf2ufcHj_-_yAfK-11" edge="1">
                    <mxGeometry relative="1" as="geometry"/>
                </mxCell>
                <mxCell id="1FsDsGf2ufcHj_-_yAfK-19" style="edgeStyle=orthogonalEdgeStyle;rounded=0;orthogonalLoop=1;jettySize=auto;html=1;entryX=1;entryY=0.5;entryDx=0;entryDy=0;" parent="J8uCGS3BcCjM7RrEL_1T-1" source="1FsDsGf2ufcHj_-_yAfK-12" target="1FsDsGf2ufcHj_-_yAfK-17" edge="1">
                    <mxGeometry relative="1" as="geometry"/>
                </mxCell>
                <mxCell id="1FsDsGf2ufcHj_-_yAfK-12" value="&lt;font style=&quot;font-size: 20px;&quot;&gt;Patroni&lt;/font&gt;" style="rounded=1;whiteSpace=wrap;html=1;" parent="J8uCGS3BcCjM7RrEL_1T-1" vertex="1">
                    <mxGeometry x="680" y="480" width="80" height="110" as="geometry"/>
                </mxCell>
                <mxCell id="1FsDsGf2ufcHj_-_yAfK-13" value="&lt;h1 style=&quot;margin-top: 0px;&quot;&gt;&lt;font style=&quot;font-size: 30px;&quot;&gt;PG-2&lt;/font&gt;&lt;/h1&gt;" style="text;html=1;whiteSpace=wrap;overflow=hidden;rounded=0;align=center;" parent="J8uCGS3BcCjM7RrEL_1T-1" vertex="1">
                    <mxGeometry x="530" y="380" width="221" height="60" as="geometry"/>
                </mxCell>
                <mxCell id="1FsDsGf2ufcHj_-_yAfK-17" value="&lt;font style=&quot;font-size: 20px;&quot;&gt;ETCD&lt;/font&gt;" style="ellipse;whiteSpace=wrap;html=1;aspect=fixed;" parent="J8uCGS3BcCjM7RrEL_1T-1" vertex="1">
                    <mxGeometry x="599" y="720" width="100" height="100" as="geometry"/>
                </mxCell>
                <mxCell id="1FsDsGf2ufcHj_-_yAfK-18" value="&lt;h1 style=&quot;margin-top: 0px;&quot;&gt;&lt;font style=&quot;font-size: 30px;&quot;&gt;ETCD-2&lt;/font&gt;&lt;/h1&gt;" style="text;html=1;whiteSpace=wrap;overflow=hidden;rounded=0;align=center;" parent="J8uCGS3BcCjM7RrEL_1T-1" vertex="1">
                    <mxGeometry x="538.5" y="650" width="221" height="60" as="geometry"/>
                </mxCell>
                <mxCell id="1FsDsGf2ufcHj_-_yAfK-20" style="edgeStyle=orthogonalEdgeStyle;rounded=0;orthogonalLoop=1;jettySize=auto;html=1;" parent="J8uCGS3BcCjM7RrEL_1T-1" source="xVIrmUXRm1avwGHS0gCq-0" target="1FsDsGf2ufcHj_-_yAfK-11" edge="1">
                    <mxGeometry relative="1" as="geometry"/>
                </mxCell>
                <mxCell id="1FsDsGf2ufcHj_-_yAfK-21" value="&lt;font style=&quot;font-size: 16px;&quot;&gt;Streaming Replication&lt;/font&gt;" style="edgeLabel;html=1;align=center;verticalAlign=middle;resizable=0;points=[];" parent="1FsDsGf2ufcHj_-_yAfK-20" connectable="0" vertex="1">
                    <mxGeometry x="0.2519" y="-2" relative="1" as="geometry">
                        <mxPoint x="-26" y="-2" as="offset"/>
                    </mxGeometry>
                </mxCell>
                <mxCell id="1FsDsGf2ufcHj_-_yAfK-22" value="&lt;h1 style=&quot;margin-top: 0px;&quot;&gt;&lt;font style=&quot;font-size: 30px;&quot;&gt;Cluster&lt;/font&gt;&lt;/h1&gt;" style="text;html=1;whiteSpace=wrap;overflow=hidden;rounded=0;align=center;" parent="J8uCGS3BcCjM7RrEL_1T-1" vertex="1">
                    <mxGeometry x="319.5" y="100" width="221" height="60" as="geometry"/>
                </mxCell>
                <mxCell id="1FsDsGf2ufcHj_-_yAfK-23" value="" style="rounded=1;whiteSpace=wrap;html=1;strokeColor=default;container=0;" parent="J8uCGS3BcCjM7RrEL_1T-1" vertex="1">
                    <mxGeometry x="305" y="180" width="250" height="130" as="geometry"/>
                </mxCell>
                <mxCell id="1FsDsGf2ufcHj_-_yAfK-24" value="&lt;h1 style=&quot;margin-top: 0px;&quot;&gt;&lt;font style=&quot;font-size: 30px;&quot;&gt;Client&lt;/font&gt;&lt;/h1&gt;" style="text;html=1;whiteSpace=wrap;overflow=hidden;rounded=0;align=center;" parent="J8uCGS3BcCjM7RrEL_1T-1" vertex="1">
                    <mxGeometry x="319.5" y="180" width="221" height="60" as="geometry"/>
                </mxCell>
                <mxCell id="1FsDsGf2ufcHj_-_yAfK-29" style="edgeStyle=orthogonalEdgeStyle;rounded=0;orthogonalLoop=1;jettySize=auto;html=1;" parent="J8uCGS3BcCjM7RrEL_1T-1" source="1FsDsGf2ufcHj_-_yAfK-26" target="xVIrmUXRm1avwGHS0gCq-0" edge="1">
                    <mxGeometry relative="1" as="geometry"/>
                </mxCell>
                <mxCell id="1FsDsGf2ufcHj_-_yAfK-32" value="&lt;font style=&quot;font-size: 16px;&quot;&gt;Read / Write&lt;/font&gt;" style="edgeLabel;html=1;align=center;verticalAlign=middle;resizable=0;points=[];" parent="1FsDsGf2ufcHj_-_yAfK-29" connectable="0" vertex="1">
                    <mxGeometry x="0.1994" y="-1" relative="1" as="geometry">
                        <mxPoint as="offset"/>
                    </mxGeometry>
                </mxCell>
                <mxCell id="1FsDsGf2ufcHj_-_yAfK-26" value="PG Admin" style="shape=umlActor;verticalLabelPosition=bottom;verticalAlign=top;html=1;outlineConnect=0;" parent="J8uCGS3BcCjM7RrEL_1T-1" vertex="1">
                    <mxGeometry x="415" y="230" width="30" height="60" as="geometry"/>
                </mxCell>
            </root>
        </mxGraphModel>
    </diagram>
</mxfile>